<svg width="64" height="32" viewBox="0 0 64 32" fill="none" xmlns="http://www.w3.org/2000/svg">
<g clip-path="url(#clip0_10_410)">
<path d="M63.9997 19.1549C62.6139 20.6581 60.9282 21.883 59.1703 22.9327C57.3953 23.9732 55.5469 24.8832 53.6399 25.6555C51.7374 26.4396 49.7879 27.1099 47.8186 27.7043C45.8492 28.2988 43.8546 28.8155 41.8437 29.2599C37.8172 30.1509 33.7394 30.7917 29.6338 31.1787C25.5026 31.5917 21.3466 31.6974 17.1998 31.4949C15.0888 31.3895 12.9868 31.1481 10.9069 30.7722C9.83577 30.5744 8.77704 30.3144 7.73611 29.9935C6.6326 29.6565 5.56884 29.201 4.56349 28.6348C4.01162 28.3256 3.49175 27.9625 3.0115 27.5508C2.88684 27.446 2.76217 27.3213 2.65015 27.2093L2.32675 26.8769C2.21835 26.7684 2.11717 26.6456 2.0178 26.5263C1.91843 26.4071 1.81544 26.2879 1.72149 26.165C0.913995 25.1245 0.365331 23.9071 0.120725 22.613C-0.115658 21.3089 -0.0237647 19.9665 0.388121 18.7068C0.778572 17.513 1.41221 16.413 2.24906 15.4764C3.04752 14.5879 3.98697 13.837 5.02963 13.2541C5.28257 13.1077 5.54816 12.9849 5.80833 12.8584C6.0685 12.7319 6.35035 12.6181 6.61052 12.5151C7.13395 12.3161 7.66771 12.1454 8.20948 12.0038C9.2515 11.7359 10.311 11.5415 11.3803 11.422C12.4318 11.2956 13.4779 11.2215 14.5186 11.1817C16.497 11.1129 18.4776 11.1509 20.4519 11.2956C20.3129 11.7707 20.1125 12.2256 19.8557 12.6488C18.123 12.7753 16.3994 12.9415 14.7029 13.1908C12.7645 13.4481 10.8571 13.9009 9.00986 14.5423C8.57872 14.6997 8.15651 14.8807 7.74515 15.0843C7.5446 15.1855 7.35309 15.2921 7.16699 15.4023C6.9809 15.5125 6.80565 15.6426 6.62497 15.7636C5.92823 16.2554 5.31773 16.8592 4.81824 17.5505C4.34627 18.1846 4.00818 18.9081 3.82453 19.677C3.66039 20.3832 3.66659 21.1183 3.8426 21.8216C3.93681 22.1673 4.067 22.5022 4.23105 22.8207C4.4 23.1551 4.60024 23.4727 4.82908 23.7693C4.88328 23.8488 4.94832 23.921 5.00975 23.9969C5.07118 24.0728 5.1308 24.1505 5.20126 24.2228L5.40362 24.4468C5.47047 24.5118 5.52286 24.5697 5.59333 24.6275C5.88127 24.8863 6.19209 25.1185 6.52199 25.3213C7.28374 25.7816 8.08927 26.1653 8.92675 26.4667C9.82033 26.7897 10.7311 27.063 11.6549 27.2852C13.568 27.7355 15.5083 28.0613 17.4636 28.2608C21.4508 28.6638 25.4615 28.7845 29.4657 28.6222C33.4979 28.4762 37.5181 28.0949 41.5058 27.4803C45.5048 26.883 49.4503 25.9708 53.3056 24.7521C55.2337 24.1371 57.1141 23.3817 58.9318 22.4919C59.8402 22.0434 60.7232 21.5452 61.5768 20.9995C62.4352 20.4543 63.2457 19.8372 63.9997 19.1549Z" fill="#13B776"/>
<path d="M26.8466 12.0777C26.8792 12.0832 26.9086 12.1007 26.9289 12.1268C26.9493 12.1529 26.959 12.1857 26.9563 12.2187C26.9536 12.2517 26.9385 12.2824 26.9142 12.3048C26.8899 12.3272 26.858 12.3397 26.8249 12.3397C25.8059 12.3596 24.7869 12.3794 23.7697 12.4282C22.7525 12.477 21.7372 12.5204 20.7272 12.5854L19.8672 12.6487C20.124 12.2254 20.3244 11.7705 20.4634 11.2954L20.7326 11.3135C22.7826 11.4613 24.8233 11.7164 26.8466 12.0777Z" fill="#13B776"/>
<path d="M16.8604 4.91e-07C17.5178 0.000357788 18.1604 0.195634 18.7068 0.56114C19.2533 0.926646 19.6791 1.44597 19.9304 2.05346C20.1818 2.66094 20.2473 3.32931 20.1189 3.97406C19.9904 4.61881 19.6736 5.21099 19.2086 5.67573C18.7436 6.14048 18.1513 6.45692 17.5065 6.58504C16.8616 6.71317 16.1933 6.64723 15.586 6.39556C14.9786 6.14389 14.4595 5.71779 14.0943 5.17114C13.7291 4.62448 13.5342 3.98182 13.5342 3.3244C13.5342 2.88768 13.6202 2.45524 13.7874 2.05178C13.9546 1.64833 14.1996 1.28178 14.5085 0.973053C14.8174 0.664331 15.1841 0.419497 15.5876 0.252537C15.9912 0.085577 16.4237 -0.000236856 16.8604 4.91e-07Z" fill="#13B776"/>
<path d="M18.8352 7.05734C18.8352 7.05734 27.3268 0.226075 32.5935 2.95786C26.4018 4.07984 21.3809 10.0222 21.3718 10.033C20.8425 9.62833 20.3185 9.22001 19.818 8.79C19.3154 8.36229 18.841 7.90242 18.3979 7.41327C18.416 7.38256 18.4305 7.35003 18.4485 7.31932C18.6943 7.1549 18.8352 7.05734 18.8352 7.05734Z" fill="#13B776"/>
<path d="M20.8283 15.9443C22.803 16.275 25.7661 17.1819 25.421 19.6445C24.9169 23.2454 21.5763 25.7134 21.4715 25.7874C23.7209 20.9707 21.5943 19.5741 19.625 19.2109C20.12 18.1991 20.3567 17.0392 20.8283 15.9443Z" fill="#13B776"/>
<path d="M21.372 10.0257C21.372 10.0257 20.7974 12.4124 19.1389 15.7531C19.7051 15.7794 20.2692 15.8397 20.8281 15.9338C20.3584 17.0286 20.1199 18.1886 19.6249 19.2021C18.8347 19.0701 18.0295 19.0537 17.2346 19.1533C16.5119 18.3981 15.6085 17.9067 14.7539 17.296C15.2646 16.0298 15.6665 14.7224 15.9554 13.3881L15.8723 13.4152C16.595 11.3501 17.3303 9.31206 18.4017 7.40234C18.8448 7.89149 19.3192 8.35136 19.8218 8.77908C20.3187 9.21992 20.8426 9.62824 21.372 10.0257Z" fill="#13B776"/>
<path d="M18.4487 7.31543C18.4306 7.34614 18.4162 7.37866 18.3981 7.40938L18.3638 7.37144L18.4487 7.31543Z" fill="#13B776"/>
<path d="M18.3691 7.375L18.4035 7.41295C17.3357 9.32266 16.5967 11.3607 15.874 13.4258C15.2254 13.6353 10.8459 14.9832 8.00569 14.0816C4.9758 13.1204 1.9441 9.40758 1.86279 9.30279C4.07064 10.1397 6.35939 10.7452 8.69226 11.1095C11.7583 11.5558 16.8171 8.39942 18.3691 7.375Z" fill="#13B776"/>
<path d="M17.2345 19.164H17.2255C16.5021 20.3078 15.7181 21.4121 14.8767 22.4721C9.85219 28.8137 5.36426 29.204 5.36426 29.204C10.6002 25.9248 13.3771 20.8225 14.7557 17.3066C15.6066 17.9173 16.51 18.4087 17.2345 19.164Z" fill="#13B776"/>
<path d="M28.581 9.69842C28.6625 9.69865 28.7425 9.72113 28.8122 9.76346C28.8862 9.80818 28.9424 9.87713 28.9712 9.95859L30.6298 13.8467L30.4708 13.9262L32.1493 9.95136C32.1719 9.89052 32.2091 9.83613 32.2575 9.79289C32.3059 9.74964 32.3641 9.71886 32.4271 9.7032C32.4901 9.68754 32.556 9.68747 32.619 9.70301C32.6821 9.71855 32.7404 9.74922 32.7889 9.79237C32.8252 9.82462 32.8539 9.86452 32.8729 9.90919C32.892 9.95386 32.9009 10.0022 32.8991 10.0507C32.8993 10.088 32.8945 10.125 32.8846 10.1609C32.8738 10.1953 32.8629 10.2278 32.8485 10.2621L30.9207 14.6886C30.8953 14.7622 30.8482 14.8265 30.7857 14.8729C30.7231 14.9193 30.648 14.9458 30.5702 14.9488C30.4855 14.9614 30.399 14.9434 30.3263 14.8982C30.2446 14.8502 30.1811 14.7765 30.1456 14.6886L28.216 10.2621C28.216 10.2422 28.2016 10.2133 28.1907 10.1772C28.1814 10.1394 28.1765 10.1006 28.1763 10.0616C28.1787 9.96827 28.2161 9.87927 28.2811 9.81224C28.3189 9.77146 28.3657 9.73997 28.4177 9.72023C28.4697 9.70048 28.5256 9.69302 28.581 9.69842Z" fill="#13B776"/>
<path d="M40.3351 12.3582C40.3433 12.8435 40.2244 13.3225 39.9901 13.7476C39.7701 14.144 39.449 14.475 39.0596 14.7069C38.6622 14.9419 38.2077 15.0626 37.7461 15.0556C37.2828 15.0624 36.8266 14.9418 36.4272 14.7069C36.0357 14.4757 35.7127 14.1446 35.4913 13.7476C35.2658 13.3192 35.1479 12.8423 35.1479 12.3582C35.1479 11.8741 35.2658 11.3972 35.4913 10.9688C35.7127 10.5717 36.0357 10.2407 36.4272 10.0094C36.8264 9.77397 37.2826 9.65272 37.7461 9.65893C38.2078 9.6526 38.6624 9.77389 39.0596 10.0094C39.449 10.2414 39.7701 10.5724 39.9901 10.9688C40.2246 11.3938 40.3436 11.8729 40.3351 12.3582ZM39.5239 12.3582C39.5321 12.0054 39.4514 11.6562 39.289 11.3428C39.1403 11.061 38.9196 10.8235 38.6495 10.6544C38.3793 10.4838 38.0656 10.3947 37.7461 10.3979C37.423 10.3937 37.1056 10.4828 36.8319 10.6544C36.5609 10.8242 36.3386 11.0614 36.1869 11.3428C36.0288 11.6567 35.9465 12.0032 35.9465 12.3546C35.9465 12.706 36.0288 13.0525 36.1869 13.3663C36.3369 13.6509 36.5594 13.8909 36.8319 14.0619C37.1058 14.233 37.4232 14.3215 37.7461 14.3167C38.0655 14.3205 38.3791 14.2321 38.6495 14.0619C38.9212 13.8917 39.1421 13.6514 39.289 13.3663C39.4503 13.0552 39.5311 12.7086 39.5239 12.3582Z" fill="#13B776"/>
<path d="M43.9125 14.5425C43.9125 14.6513 43.8693 14.7556 43.7924 14.8325C43.7155 14.9094 43.6112 14.9526 43.5024 14.9526C43.4491 14.9538 43.3962 14.9438 43.347 14.9233C43.2978 14.9027 43.2535 14.8721 43.2169 14.8334C43.1421 14.7552 43.1012 14.6507 43.1031 14.5425V7.96598C43.1031 7.85721 43.1463 7.75289 43.2232 7.67598C43.3001 7.59906 43.4045 7.55585 43.5132 7.55585C43.5673 7.55415 43.621 7.56409 43.6709 7.58497C43.7208 7.60586 43.7656 7.63721 43.8023 7.6769C43.8747 7.75559 43.9142 7.85906 43.9125 7.96598V14.5425Z" fill="#13B776"/>
<path d="M50.7785 9.78892C50.8324 9.78663 50.8862 9.79574 50.9363 9.81566C50.9865 9.83559 51.0318 9.86588 51.0694 9.90455C51.106 9.94406 51.1345 9.99043 51.1531 10.041C51.1717 10.0915 51.1801 10.1452 51.1778 10.199V12.9092C51.1778 13.5837 50.9899 14.1052 50.6141 14.4738C50.2383 14.8424 49.7138 15.0273 49.0405 15.0285C48.3744 15.0285 47.8528 14.8436 47.4758 14.4738C47.0988 14.104 46.9121 13.5849 46.9157 12.9164V10.2063C46.9139 10.1519 46.9233 10.0977 46.9432 10.0471C46.963 9.99644 46.9931 9.9504 47.0314 9.91178C47.1087 9.83779 47.2116 9.79649 47.3187 9.79649C47.4257 9.79649 47.5286 9.83779 47.6059 9.91178C47.6431 9.95097 47.672 9.99724 47.6909 10.0478C47.7099 10.0984 47.7184 10.1523 47.7161 10.2063V12.9164C47.7024 13.1026 47.7263 13.2897 47.7861 13.4666C47.846 13.6435 47.9408 13.8066 48.0648 13.9462C48.343 14.1728 48.6908 14.2965 49.0495 14.2965C49.4082 14.2965 49.756 14.1728 50.0342 13.9462C50.1585 13.8067 50.2536 13.6437 50.3138 13.4668C50.374 13.2899 50.3981 13.1028 50.3847 12.9164V10.2063C50.3824 10.1523 50.3909 10.0984 50.4099 10.0478C50.4288 9.99724 50.4577 9.95097 50.4949 9.91178C50.5308 9.87245 50.5747 9.84117 50.6236 9.82C50.6725 9.79882 50.7253 9.78823 50.7785 9.78892Z" fill="#13B776"/>
<path d="M53.9616 9.8196H56.3104C56.3597 9.81858 56.4087 9.82767 56.4544 9.84632C56.5 9.86496 56.5414 9.89276 56.5759 9.928C56.6435 10.0044 56.6779 10.1045 56.6717 10.2062C56.6718 10.3017 56.6341 10.3932 56.5669 10.461C56.5333 10.4948 56.4933 10.5216 56.4493 10.5399C56.4053 10.5582 56.358 10.5676 56.3104 10.5676H53.9616C53.9124 10.5681 53.8637 10.5586 53.8183 10.5397C53.773 10.5207 53.732 10.4927 53.6978 10.4574C53.661 10.4249 53.6315 10.3848 53.6116 10.3399C53.5916 10.295 53.5816 10.2463 53.5822 10.1972C53.5807 10.1474 53.5903 10.0979 53.6103 10.0523C53.6303 10.0067 53.6602 9.96607 53.6978 9.93342C53.7672 9.86204 53.8621 9.8211 53.9616 9.8196ZM55.0113 8.45912C55.064 8.45766 55.1164 8.46774 55.1647 8.48865C55.2131 8.50956 55.2563 8.5408 55.2914 8.58018C55.3639 8.65876 55.4034 8.7623 55.4016 8.86926V13.686C55.3939 13.8103 55.4175 13.9346 55.4702 14.0474C55.5092 14.1222 55.5731 14.181 55.6509 14.2136C55.7222 14.2421 55.7981 14.2574 55.8749 14.2587C55.9371 14.2606 55.9989 14.2482 56.0556 14.2226C56.1125 14.1976 56.1742 14.1859 56.2363 14.1883C56.2715 14.1903 56.3059 14.2 56.337 14.2165C56.3682 14.233 56.3955 14.256 56.4169 14.284C56.4743 14.3521 56.5046 14.439 56.5019 14.528C56.4977 14.593 56.4761 14.6558 56.4392 14.7095C56.4023 14.7633 56.3515 14.806 56.2923 14.8333C56.15 14.917 55.9876 14.9601 55.8225 14.958C55.7286 14.958 55.6148 14.958 55.4774 14.9381C55.3351 14.9225 55.1975 14.8782 55.0727 14.808C54.9285 14.7227 54.8123 14.5971 54.7385 14.4466C54.6372 14.2229 54.5907 13.9783 54.603 13.733V8.86926C54.6039 8.76078 54.6474 8.657 54.7242 8.58029C54.8009 8.50358 54.9046 8.46007 55.0131 8.45912H55.0113Z" fill="#13B776"/>
<path d="M59.6444 9.03903C59.5131 9.0499 59.3822 9.01476 59.274 8.93965C59.232 8.90016 59.1995 8.85171 59.1788 8.79791C59.1582 8.7441 59.15 8.68633 59.1547 8.62889V8.48978C59.1495 8.43131 59.1587 8.37246 59.1813 8.31831C59.204 8.26417 59.2395 8.21636 59.2848 8.17902C59.3916 8.10815 59.5182 8.07333 59.6462 8.07965C59.7745 8.07015 59.9021 8.10525 60.0075 8.17902C60.05 8.21817 60.083 8.26653 60.104 8.32038C60.125 8.37424 60.1334 8.43218 60.1286 8.48978V8.62889C60.1342 8.68706 60.1256 8.74572 60.1036 8.79984C60.0816 8.85397 60.0467 8.90194 60.0021 8.93965C59.8973 9.01183 59.7714 9.04682 59.6444 9.03903ZM60.0527 14.5423C60.0546 14.6505 60.0137 14.7551 59.9389 14.8332C59.9023 14.8719 59.8579 14.9026 59.8088 14.9231C59.7596 14.9436 59.7067 14.9536 59.6534 14.9525C59.5987 14.9544 59.5442 14.9447 59.4935 14.9242C59.4427 14.9036 59.3969 14.8726 59.3589 14.8332C59.2836 14.7553 59.242 14.6507 59.2433 14.5423V10.1158C59.2425 10.0621 59.2523 10.0088 59.2721 9.95887C59.2919 9.90896 59.3214 9.86345 59.3589 9.82496C59.3969 9.78554 59.4427 9.75455 59.4935 9.734C59.5442 9.71346 59.5987 9.70382 59.6534 9.70571C59.7067 9.70453 59.7596 9.71453 59.8088 9.73507C59.8579 9.75561 59.9023 9.78623 59.9389 9.82496C59.9761 9.86354 60.0053 9.90911 60.0248 9.95903C60.0444 10.009 60.0538 10.0622 60.0527 10.1158V14.5423Z" fill="#13B776"/>
</g>
<defs>
<clipPath id="clip0_10_410">
<rect width="64" height="31.5998" fill="white"/>
</clipPath>
</defs>
</svg>
