<svg width="130" height="64" viewBox="0 0 130 64" fill="none" xmlns="http://www.w3.org/2000/svg">
<g clip-path="url(#clip0_38_660)">
<path d="M129.621 38.7948C126.814 41.8392 123.4 44.3202 119.839 46.4462C116.244 48.5535 112.501 50.3966 108.639 51.9607C104.785 53.5488 100.837 54.9064 96.8485 56.1103C92.8599 57.3141 88.8201 58.3607 84.7474 59.2608C76.5925 61.0654 68.3336 62.3632 60.0183 63.147C51.6514 63.9835 43.234 64.1975 34.8354 63.7873C30.56 63.5738 26.3028 63.0849 22.0903 62.3236C19.9209 61.9231 17.7766 61.3965 15.6684 60.7465C13.4334 60.0641 11.2789 59.1414 9.24275 57.9948C8.12504 57.3685 7.07214 56.6331 6.09947 55.7992C5.84698 55.587 5.59449 55.3345 5.36762 55.1076L4.71262 54.4343C4.49307 54.2148 4.28815 53.9659 4.08689 53.7244C3.88563 53.4829 3.67705 53.2414 3.48677 52.9926C1.85133 50.8853 0.740101 48.4196 0.244692 45.7985C-0.23406 43.1574 -0.0479458 40.4386 0.786258 37.8873C1.57705 35.4694 2.86038 33.2416 4.55527 31.3446C6.17242 29.5451 8.07511 28.0244 10.1868 26.8437C10.6991 26.5473 11.237 26.2985 11.764 26.0423C12.2909 25.7862 12.8617 25.5556 13.3887 25.3471C14.4488 24.944 15.5298 24.5983 16.6271 24.3115C18.7375 23.7689 20.8835 23.3752 23.049 23.1332C25.1787 22.8771 27.2974 22.7271 29.4051 22.6466C33.412 22.507 37.4235 22.584 41.4221 22.8771C41.1406 23.8393 40.7346 24.7607 40.2145 25.6178C36.7053 25.874 33.2144 26.2106 29.7784 26.7156C25.8525 27.2367 21.9894 28.1537 18.2481 29.4527C17.3749 29.7716 16.5198 30.1381 15.6867 30.5505C15.2805 30.7554 14.8926 30.9713 14.5157 31.1945C14.1388 31.4177 13.7839 31.6812 13.4179 31.9264C12.0068 32.9225 10.7703 34.1453 9.7587 35.5454C8.8028 36.8297 8.11807 38.295 7.74612 39.8523C7.41369 41.2825 7.42623 42.7713 7.78272 44.1958C7.97351 44.896 8.2372 45.5742 8.56945 46.2193C8.91163 46.8965 9.31718 47.5397 9.78066 48.1404C9.89043 48.3014 10.0222 48.4478 10.1466 48.6015C10.271 48.7552 10.3917 48.9125 10.5345 49.0589L10.9443 49.5127C11.0797 49.6444 11.1858 49.7615 11.3285 49.8786C11.9117 50.4029 12.5412 50.8732 13.2094 51.2837C14.7522 52.2161 16.3836 52.9932 18.0798 53.6037C19.8896 54.2579 21.7342 54.8113 23.6052 55.2613C27.4799 56.1733 31.4097 56.8333 35.3697 57.2373C43.4451 58.0534 51.5681 58.298 59.678 57.9691C67.8444 57.6735 75.9867 56.9013 84.0631 55.6565C92.1623 54.4468 100.153 52.5992 107.962 50.1311C111.867 48.8854 115.675 47.3554 119.356 45.5534C121.196 44.6451 122.985 43.636 124.714 42.5308C126.452 41.4265 128.093 40.1766 129.621 38.7948Z" fill="#059669"/>
<path d="M54.3729 24.4614C54.439 24.4724 54.4985 24.5079 54.5397 24.5608C54.5808 24.6137 54.6006 24.6801 54.5951 24.7469C54.5895 24.8137 54.5591 24.8759 54.5098 24.9213C54.4606 24.9667 54.396 24.992 54.329 24.992C52.2652 25.0322 50.2014 25.0725 48.1413 25.1713C46.0811 25.2701 44.0246 25.3579 41.9791 25.4897L40.2373 25.6177C40.7574 24.7606 41.1634 23.8392 41.4448 22.877L41.9901 22.9135C46.1419 23.213 50.2752 23.7296 54.3729 24.4614Z" fill="#059669"/>
<path d="M34.1468 9.94437e-07C35.4783 0.000724638 36.7797 0.396223 37.8865 1.13649C38.9932 1.87676 39.8556 2.92857 40.3647 4.15892C40.8737 5.38928 41.0065 6.74295 40.7463 8.04878C40.4861 9.35461 39.8446 10.554 38.9028 11.4952C37.961 12.4365 36.7613 13.0774 35.4553 13.3369C34.1494 13.5964 32.7958 13.4628 31.5657 12.9531C30.3356 12.4434 29.2843 11.5804 28.5446 10.4733C27.8049 9.3661 27.4102 8.0645 27.4102 6.73299C27.4102 5.8485 27.5844 4.97266 27.923 4.15554C28.2616 3.33842 28.7579 2.59602 29.3835 1.97075C30.0091 1.34549 30.7518 0.84962 31.5691 0.511471C32.3864 0.173322 33.2623 -0.00047971 34.1468 9.94437e-07Z" fill="#059669"/>
<path d="M38.1502 14.2934C38.1502 14.2934 55.3486 0.457884 66.0153 5.99065C53.4751 8.26303 43.306 20.2983 43.2877 20.3202C42.2156 19.5005 41.1544 18.6736 40.1408 17.8027C39.1228 16.9364 38.162 16.005 37.2646 15.0143C37.3012 14.9521 37.3305 14.8862 37.3671 14.824C37.8648 14.491 38.1502 14.2934 38.1502 14.2934Z" fill="#059669"/>
<path d="M42.1841 32.293C46.1837 32.9626 52.1848 34.7995 51.4859 39.7871C50.465 47.0799 43.699 52.0784 43.4868 52.2285C48.0426 42.473 43.7356 39.6444 39.7471 38.9089C40.7497 36.8597 41.2291 34.5105 42.1841 32.293Z" fill="#059669"/>
<path d="M43.2856 20.3054C43.2856 20.3054 42.122 25.1392 38.7628 31.9052C39.9096 31.9584 41.0521 32.0806 42.1842 32.2711C41.2328 34.4886 40.7498 36.8378 39.7471 38.8906C38.1467 38.6233 36.5159 38.59 34.906 38.7918C33.4423 37.2623 31.6127 36.267 29.8818 35.0301C30.9161 32.4657 31.7301 29.8178 32.3152 27.1152L32.1469 27.1701C33.6106 22.9876 35.0999 18.86 37.2698 14.9922C38.1672 15.9829 39.128 16.9143 40.146 17.7805C41.1523 18.6734 42.2135 19.5004 43.2856 20.3054Z" fill="#059669"/>
<path d="M37.3634 14.8154C37.3268 14.8776 37.2975 14.9435 37.2609 15.0057L37.1914 14.9289L37.3634 14.8154Z" fill="#059669"/>
<path d="M37.2032 14.9365L37.2728 15.0134C35.1101 18.8812 33.6135 23.0088 32.1498 27.1913C30.8362 27.6158 21.9662 30.3456 16.2139 28.5196C10.0773 26.5729 3.93713 19.0532 3.77246 18.8409C8.24408 20.5359 12.8796 21.7622 17.6044 22.5002C23.8141 23.404 34.0599 17.0113 37.2032 14.9365Z" fill="#059669"/>
<path d="M34.9054 38.8135H34.8871C33.422 41.13 31.8341 43.3666 30.1301 45.5135C19.9538 58.3574 10.8643 59.1478 10.8643 59.1478C21.4687 52.5063 27.093 42.1726 29.885 35.0518C31.6085 36.2886 33.4381 37.2839 34.9054 38.8135Z" fill="#059669"/>
<path d="M57.8851 19.6421C58.0503 19.6426 58.2123 19.6881 58.3535 19.7739C58.5032 19.8644 58.617 20.0041 58.6755 20.1691L62.0347 28.0437L61.7127 28.2047L65.1121 20.1544C65.158 20.0312 65.2332 19.921 65.3313 19.8335C65.4293 19.7459 65.5473 19.6835 65.6748 19.6518C65.8024 19.6201 65.9359 19.62 66.0635 19.6514C66.1912 19.6829 66.3092 19.745 66.4075 19.8324C66.481 19.8977 66.5391 19.9785 66.5777 20.069C66.6163 20.1595 66.6344 20.2574 66.6307 20.3557C66.6312 20.4311 66.6213 20.5062 66.6014 20.5789C66.5794 20.6484 66.5575 20.7143 66.5282 20.7838L62.6238 29.7489C62.5723 29.8981 62.477 30.0281 62.3503 30.1222C62.2237 30.2162 62.0715 30.2698 61.9139 30.2759C61.7423 30.3013 61.5672 30.265 61.4199 30.1734C61.2545 30.0761 61.1259 29.9269 61.054 29.7489L57.1459 20.7838C57.1459 20.7436 57.1167 20.685 57.0947 20.6118C57.0758 20.5352 57.0659 20.4566 57.0654 20.3776C57.0704 20.1887 57.1461 20.0084 57.2777 19.8727C57.3543 19.7901 57.449 19.7263 57.5544 19.6863C57.6598 19.6463 57.7729 19.6312 57.8851 19.6421Z" fill="#059669"/>
<path d="M81.6942 25.0289C81.7109 26.0118 81.4699 26.9819 80.9953 27.8428C80.5499 28.6456 79.8996 29.3161 79.1108 29.7859C78.306 30.2619 77.3854 30.5063 76.4506 30.4921C75.5123 30.5058 74.5882 30.2615 73.7793 29.7859C72.9865 29.3176 72.3323 28.647 71.8838 27.8428C71.4271 26.9752 71.1885 26.0094 71.1885 25.0289C71.1885 24.0484 71.4271 23.0826 71.8838 22.2149C72.3323 21.4108 72.9865 20.7402 73.7793 20.2719C74.5879 19.795 75.5119 19.5494 76.4506 19.562C77.3858 19.5492 78.3063 19.7948 79.1108 20.2719C79.8996 20.7417 80.5499 21.4121 80.9953 22.2149C81.4704 23.0757 81.7114 24.0459 81.6942 25.0289ZM80.0512 25.0289C80.0679 24.3143 79.9043 23.6071 79.5755 22.9724C79.2743 22.4016 78.8274 21.9206 78.2802 21.5782C77.733 21.2326 77.0977 21.0522 76.4506 21.0586C75.7962 21.0502 75.1534 21.2306 74.599 21.5782C74.0502 21.922 73.6 22.4024 73.2926 22.9724C72.9725 23.6081 72.8058 24.3099 72.8058 25.0216C72.8058 25.7333 72.9725 26.4351 73.2926 27.0707C73.5966 27.6471 74.0472 28.1331 74.599 28.4796C75.1537 28.8261 75.7966 29.0052 76.4506 28.9955C77.0974 29.0033 77.7327 28.8241 78.2802 28.4796C78.8306 28.1347 79.278 27.6481 79.5755 27.0707C79.9022 26.4406 80.0657 25.7386 80.0512 25.0289Z" fill="#059669"/>
<path d="M88.9373 29.4534C88.9373 29.6737 88.8498 29.885 88.694 30.0407C88.5382 30.1965 88.327 30.284 88.1067 30.284C87.9988 30.2864 87.8916 30.2661 87.792 30.2246C87.6924 30.183 87.6027 30.1209 87.5285 30.0425C87.377 29.8842 87.2941 29.6725 87.298 29.4534V16.1338C87.298 15.9135 87.3855 15.7022 87.5413 15.5464C87.6971 15.3906 87.9083 15.3031 88.1286 15.3031C88.2381 15.2997 88.347 15.3198 88.448 15.3621C88.549 15.4044 88.6398 15.4679 88.7141 15.5483C88.8608 15.7076 88.9407 15.9172 88.9373 16.1338V29.4534Z" fill="#059669"/>
<path d="M102.845 19.8259C102.955 19.8212 103.063 19.8397 103.165 19.8801C103.266 19.9204 103.358 19.9818 103.435 20.0601C103.509 20.1401 103.566 20.234 103.604 20.3364C103.642 20.4387 103.659 20.5476 103.654 20.6565V26.1454C103.654 27.5115 103.274 28.5678 102.512 29.3143C101.751 30.0608 100.689 30.4352 99.3252 30.4377C97.9762 30.4377 96.9199 30.0632 96.1563 29.3143C95.3927 28.5654 95.0146 27.5139 95.0219 26.16V20.6712C95.0183 20.5611 95.0372 20.4513 95.0774 20.3488C95.1177 20.2462 95.1785 20.1529 95.2561 20.0747C95.4128 19.9249 95.6212 19.8412 95.8379 19.8412C96.0547 19.8412 96.2631 19.9249 96.4198 20.0747C96.4951 20.1541 96.5536 20.2478 96.592 20.3503C96.6303 20.4527 96.6476 20.5619 96.643 20.6712V26.16C96.6153 26.5373 96.6635 26.9162 96.7848 27.2745C96.9061 27.6327 97.098 27.963 97.3492 28.2458C97.9126 28.7046 98.6169 28.9552 99.3435 28.9552C100.07 28.9552 100.774 28.7046 101.338 28.2458C101.59 27.9633 101.782 27.6331 101.904 27.2749C102.026 26.9166 102.075 26.5375 102.048 26.16V20.6712C102.043 20.5619 102.06 20.4527 102.099 20.3503C102.137 20.2478 102.196 20.1541 102.271 20.0747C102.344 19.9951 102.432 19.9317 102.531 19.8888C102.631 19.846 102.737 19.8245 102.845 19.8259Z" fill="#059669"/>
<path d="M109.29 19.8875H114.047C114.147 19.8855 114.246 19.9039 114.339 19.9416C114.431 19.9794 114.515 20.0357 114.585 20.1071C114.722 20.2618 114.792 20.4645 114.779 20.6706C114.779 20.8639 114.703 21.0493 114.567 21.1866C114.499 21.255 114.418 21.3094 114.329 21.3464C114.239 21.3835 114.144 21.4025 114.047 21.4025H109.29C109.191 21.4035 109.092 21.3843 109 21.3459C108.908 21.3075 108.825 21.2508 108.756 21.1792C108.681 21.1134 108.622 21.0323 108.581 20.9413C108.541 20.8504 108.521 20.7518 108.522 20.6523C108.519 20.5515 108.538 20.4512 108.579 20.3588C108.619 20.2664 108.68 20.1842 108.756 20.1181C108.897 19.9735 109.089 19.8906 109.29 19.8875ZM111.416 17.1321C111.523 17.1292 111.629 17.1496 111.727 17.1919C111.825 17.2343 111.912 17.2975 111.983 17.3773C112.13 17.5364 112.21 17.7462 112.207 17.9628V27.7183C112.191 27.97 112.239 28.2217 112.346 28.4501C112.425 28.6016 112.554 28.7207 112.712 28.7868C112.856 28.8445 113.01 28.8755 113.165 28.8783C113.291 28.8819 113.416 28.8569 113.531 28.8051C113.646 28.7545 113.772 28.7307 113.897 28.7356C113.969 28.7397 114.038 28.7592 114.101 28.7927C114.164 28.8261 114.22 28.8728 114.263 28.9295C114.379 29.0674 114.441 29.2433 114.435 29.4235C114.427 29.5553 114.383 29.6823 114.308 29.7912C114.233 29.9001 114.131 29.9867 114.011 30.0419C113.723 30.2114 113.393 30.2987 113.059 30.2944C112.869 30.2944 112.638 30.2944 112.36 30.2541C112.072 30.2225 111.793 30.1329 111.541 29.9907C111.249 29.8179 111.013 29.5635 110.864 29.2588C110.658 28.8057 110.564 28.3102 110.589 27.8134V17.9628C110.591 17.7431 110.679 17.5329 110.835 17.3775C110.99 17.2222 111.2 17.134 111.42 17.1321H111.416Z" fill="#059669"/>
<path d="M120.8 18.3075C120.534 18.3295 120.269 18.2583 120.05 18.1062C119.965 18.0262 119.899 17.9281 119.857 17.8191C119.816 17.7101 119.799 17.5931 119.809 17.4768V17.1951C119.798 17.0766 119.817 16.9574 119.862 16.8478C119.908 16.7381 119.98 16.6413 120.072 16.5657C120.288 16.4221 120.545 16.3516 120.804 16.3644C121.064 16.3452 121.322 16.4163 121.536 16.5657C121.622 16.645 121.689 16.7429 121.731 16.852C121.774 16.9611 121.791 17.0784 121.781 17.1951V17.4768C121.792 17.5946 121.775 17.7134 121.73 17.823C121.686 17.9327 121.615 18.0298 121.525 18.1062C121.312 18.2524 121.057 18.3233 120.8 18.3075ZM121.627 29.4535C121.631 29.6726 121.548 29.8843 121.397 30.0426C121.322 30.1211 121.233 30.1831 121.133 30.2247C121.034 30.2663 120.926 30.2865 120.818 30.2841C120.708 30.288 120.597 30.2684 120.495 30.2268C120.392 30.1852 120.299 30.1225 120.222 30.0426C120.069 29.8847 119.985 29.673 119.988 29.4535V20.4884C119.986 20.3796 120.006 20.2716 120.046 20.1705C120.086 20.0694 120.146 19.9772 120.222 19.8992C120.299 19.8194 120.392 19.7566 120.495 19.715C120.597 19.6734 120.708 19.6539 120.818 19.6577C120.926 19.6553 121.034 19.6756 121.133 19.7172C121.233 19.7588 121.322 19.8208 121.397 19.8992C121.472 19.9774 121.531 20.0697 121.571 20.1708C121.61 20.2719 121.629 20.3798 121.627 20.4884V29.4535Z" fill="#059669"/>
</g>
<defs>
<clipPath id="clip0_38_660">
<rect width="129.621" height="64" fill="white"/>
</clipPath>
</defs>
</svg>
