<svg width="50" height="62" viewBox="0 0 50 62" fill="none" xmlns="http://www.w3.org/2000/svg">
<path d="M20.6231 39.7685H28.7898L26.957 29.5319C27.9752 29.0955 28.795 28.4094 29.4164 27.4734C30.0377 26.5375 30.3484 25.503 30.3484 24.37C30.3484 22.8185 29.7956 21.4903 28.6901 20.3855C27.5847 19.2806 26.2558 18.7281 24.7034 18.7281C23.1511 18.7281 21.8231 19.2806 20.7197 20.3855C19.6162 21.4903 19.0645 22.8185 19.0645 24.37C19.0645 25.503 19.3752 26.5375 19.9965 27.4734C20.6179 28.4094 21.4377 29.0955 22.4559 29.5319L20.6231 39.7685ZM24.7064 61.5882C17.695 59.6764 11.89 55.5494 7.2912 49.2071C2.69244 42.8648 0.393066 35.7745 0.393066 27.936V9.2833L24.7064 0.181396L49.0198 9.2833V27.936C49.0198 35.7745 46.7204 42.8648 42.1217 49.2071C37.5229 55.5494 31.7178 59.6764 24.7064 61.5882ZM24.7064 56.4638C30.3255 54.6808 34.9721 51.1148 38.6461 45.7659C42.3202 40.4169 44.1572 34.4736 44.1572 27.936V12.6185L24.7064 5.35571L5.25567 12.6185V27.936C5.25567 34.4736 7.09269 40.4169 10.7667 45.7659C14.4408 51.1148 19.0873 54.6808 24.7064 56.4638Z" fill="#F1F1F1"/>
</svg>
