<svg width="34" height="30" viewBox="0 0 34 30" fill="none" xmlns="http://www.w3.org/2000/svg">
<path d="M15.4387 29.6551V26.4134H28.4058V14.905C28.4058 13.3381 28.1087 11.8658 27.5143 10.488C26.92 9.11028 26.1096 7.90811 25.083 6.88155C24.0564 5.85498 22.8543 5.04453 21.4765 4.4502C20.0987 3.85587 18.6264 3.55871 17.0596 3.55871C15.4927 3.55871 14.0204 3.85587 12.6426 4.4502C11.2648 5.04453 10.0627 5.85498 9.03611 6.88155C8.00955 7.90811 7.1991 9.11028 6.60477 10.488C6.01044 11.8658 5.71328 13.3381 5.71328 14.905V24.7925H4.09238C3.20089 24.7925 2.43771 24.475 1.80286 23.8402C1.16801 23.2053 0.850586 22.4422 0.850586 21.5507V18.3089C0.850586 17.6875 0.999168 17.1405 1.29633 16.6677C1.5935 16.1949 1.98521 15.81 2.47148 15.5128L2.59305 13.3651C2.83618 11.393 3.39674 9.61006 4.27473 8.01617C5.15272 6.42229 6.24682 5.07155 7.55705 3.96393C8.86727 2.85632 10.3396 1.99859 11.974 1.39076C13.6084 0.782922 15.3036 0.479004 17.0596 0.479004C18.8425 0.479004 20.5512 0.782922 22.1856 1.39076C23.82 1.99859 25.2856 2.86307 26.5823 3.98419C27.879 5.10531 28.9664 6.45606 29.8444 8.03644C30.7224 9.61681 31.2829 11.3795 31.5261 13.3246L31.6476 15.4318C32.1339 15.6749 32.5256 16.0329 32.8228 16.5056C33.1199 16.9784 33.2685 17.4984 33.2685 18.0657V21.7938C33.2685 22.3881 33.1199 22.9149 32.8228 23.3742C32.5256 23.8334 32.1339 24.1846 31.6476 24.4278V26.4134C31.6476 27.3048 31.3302 28.068 30.6953 28.7029C30.0605 29.3377 29.2973 29.6551 28.4058 29.6551H15.4387ZM12.1969 18.3089C11.7376 18.3089 11.3526 18.1535 11.042 17.8429C10.7313 17.5322 10.576 17.1472 10.576 16.688C10.576 16.2287 10.7313 15.8438 11.042 15.5331C11.3526 15.2224 11.7376 15.0671 12.1969 15.0671C12.6561 15.0671 13.0411 15.2224 13.3518 15.5331C13.6624 15.8438 13.8178 16.2287 13.8178 16.688C13.8178 17.1472 13.6624 17.5322 13.3518 17.8429C13.0411 18.1535 12.6561 18.3089 12.1969 18.3089ZM21.9222 18.3089C21.463 18.3089 21.078 18.1535 20.7674 17.8429C20.4567 17.5322 20.3013 17.1472 20.3013 16.688C20.3013 16.2287 20.4567 15.8438 20.7674 15.5331C21.078 15.2224 21.463 15.0671 21.9222 15.0671C22.3815 15.0671 22.7665 15.2224 23.0771 15.5331C23.3878 15.8438 23.5431 16.2287 23.5431 16.688C23.5431 17.1472 23.3878 17.5322 23.0771 17.8429C22.7665 18.1535 22.3815 18.3089 21.9222 18.3089ZM7.3747 15.7965C7.26664 14.2026 7.48951 12.7573 8.04331 11.4606C8.59712 10.1639 9.34003 9.063 10.272 8.158C11.2041 7.253 12.2779 6.55737 13.4936 6.0711C14.7093 5.58483 15.9249 5.34169 17.1406 5.34169C19.599 5.34169 21.7264 6.11837 23.5229 7.67173C25.3194 9.22509 26.4067 11.1634 26.7849 13.4867C24.2455 13.4597 21.9493 12.7776 19.8961 11.4403C17.843 10.1031 16.2896 8.36737 15.236 6.23319C14.8038 8.4214 13.8921 10.3597 12.5008 12.0482C11.1095 13.7366 9.40082 14.986 7.3747 15.7965Z" fill="#132941"/>
</svg>
